<svg width="32" height="33" viewBox="0 0 32 33" fill="none" xmlns="http://www.w3.org/2000/svg">
<g clip-path="url(#clip0_2429_11789)">
<path d="M26 26.5H6C5.46957 26.5 4.96086 26.2893 4.58579 25.9142C4.21071 25.5391 4 25.0304 4 24.5V10.5C4 9.96957 4.21071 9.46086 4.58579 9.08579C4.96086 8.71071 5.46957 8.5 6 8.5H10L12 5.5H20L22 8.5H26C26.5304 8.5 27.0391 8.71071 27.4142 9.08579C27.7893 9.46086 28 9.96957 28 10.5V24.5C28 25.0304 27.7893 25.5391 27.4142 25.9142C27.0391 26.2893 26.5304 26.5 26 26.5Z" stroke="#454A47" stroke-width="2" stroke-linecap="round" stroke-linejoin="round"/>
<path d="M16 21.5C18.4853 21.5 20.5 19.4853 20.5 17C20.5 14.5147 18.4853 12.5 16 12.5C13.5147 12.5 11.5 14.5147 11.5 17C11.5 19.4853 13.5147 21.5 16 21.5Z" stroke="#454A47" stroke-width="2" stroke-linecap="round" stroke-linejoin="round"/>
</g>
<defs>
<clipPath id="clip0_2429_11789">
<rect width="32" height="32" fill="white" transform="translate(0 0.5)"/>
</clipPath>
</defs>
</svg>
