<svg width="83" height="64" viewBox="0 0 83 64" fill="none" xmlns="http://www.w3.org/2000/svg">
<path d="M65.3559 54.0837C65.3559 55.5219 65.3194 56.9635 65.3559 58.4017C65.4224 60.5208 66.8838 62.0021 69.0096 62.0553C71.4453 62.104 73.8811 62.104 76.3168 62.0553C78.4459 62.0121 79.7778 60.6038 79.7977 58.4017C79.8243 55.027 79.8243 51.6502 79.7977 48.2711C79.7977 47.3544 79.8708 46.5174 80.462 45.7767C81.4817 44.5245 81.7906 43.0431 81.7906 41.4588C81.7906 37.9712 81.7674 34.4837 81.7906 30.9961C81.8146 28.8235 80.9789 26.7294 79.4656 25.1703C78.4094 24.0078 76.8848 23.2206 76.453 21.5166C76.4284 21.4386 76.3854 21.3677 76.3276 21.3099C76.2698 21.2521 76.1989 21.209 76.1209 21.1845C73.9021 20.9586 73.746 18.9093 73.0053 17.4977C71.3878 14.4054 69.933 11.2267 68.4981 8.04473C67.0632 4.86275 64.4392 3.41459 61.1908 2.91304C56.0769 2.18444 50.9144 1.8513 45.7493 1.9166C41.5974 1.9166 37.4456 1.76713 33.2937 1.95978C29.4142 2.14578 25.5082 2.22882 21.6685 2.91969C18.1179 3.56405 15.6068 5.44733 14.1554 8.8751C12.9032 11.8345 11.2989 14.6412 9.88726 17.5342C9.50861 18.3081 9.15653 19.1152 9.22296 20.0187" stroke="#2A2D2B" stroke-width="2" stroke-linecap="round" stroke-linejoin="round"/>
<path d="M17.6811 53.918C17.6811 55.3562 17.6512 56.7977 17.6811 58.2359C17.7375 60.624 16.1432 61.9061 14.0275 62.0257C11.6497 62.1453 9.26738 62.1453 6.8896 62.0257C4.72732 61.9261 3.48176 60.7569 3.23597 58.5614C2.85068 55.0273 3.13632 51.4767 3.07321 47.9327C3.07321 47.079 2.98021 46.3384 2.42885 45.5844C1.69458 44.5763 1.28763 43.367 1.26302 42.1201C1.18994 38.2472 1.17666 34.3677 1.26302 30.4949C1.31284 27.8909 2.72114 25.8814 4.58449 24.204C5.41818 23.45 6.24523 22.7525 6.75009 21.7063C7.20846 20.7763 9.19138 20.2149 10.2144 20.5271C12.8716 21.3343 15.6251 21.404 18.352 21.6863C29.8975 22.8754 41.4894 22.6429 53.0581 22.4536C56.3699 22.4049 59.6778 22.2353 62.9752 21.9456M73.9835 20.185C73.338 20.4595 72.6716 20.6817 71.9906 20.8493C68.9976 21.315 65.9908 21.6806 62.9752 21.9456M50.6983 22.4538C50.6603 20.8246 51.2711 19.247 52.3963 18.0681C53.5216 16.8892 55.069 16.2056 56.6982 16.1677C58.3275 16.1297 59.9051 16.7406 61.084 17.8658C62.2091 18.9397 62.8831 20.3983 62.9752 21.9456" stroke="#2A2D2B" stroke-width="2" stroke-linecap="round" stroke-linejoin="round"/>
<path d="M71.3327 53.5861C69.4959 53.3934 67.679 53.1941 65.8456 53.7322C64.8491 54.0212 63.8992 53.4001 62.8562 53.4001C53.8883 53.4532 44.9203 53.43 35.9523 53.43C30.691 53.43 25.4298 53.3104 20.1753 53.4765C16.9634 53.5761 13.7449 53.1443 10.543 53.596" stroke="#2A2D2B" stroke-width="2" stroke-linecap="round" stroke-linejoin="round"/>
<path d="M53.0645 41.6289C45.7573 41.8991 38.45 41.8991 31.1428 41.6289C30.9691 41.6546 30.8008 41.7084 30.6445 41.7883" stroke="#2A2D2B" stroke-width="2" stroke-linecap="round" stroke-linejoin="round"/>
<path d="M73.6567 33.6562C71.7601 36.7685 68.8007 37.931 65.353 38.127C64.0244 38.2034 62.6958 38.127 61.3672 38.127" stroke="#2A2D2B" stroke-width="2" stroke-linecap="round" stroke-linejoin="round"/>
<path d="M9.38281 33.1582C10.2995 35.6659 12.319 36.9015 14.6972 37.6256C16.694 38.1837 18.7833 38.3306 20.8386 38.0574" stroke="#2A2D2B" stroke-width="2" stroke-linecap="round" stroke-linejoin="round"/>
<path d="M80.9668 17.7129C81.0864 18.4038 80.8439 18.7658 80.1497 19.0714C78.8211 19.656 77.4361 20.1808 76.4961 21.3665" stroke="#2A2D2B" stroke-width="2" stroke-linecap="round" stroke-linejoin="round"/>
<path d="M2.57616 17.5605C2.45658 18.2514 2.69906 18.6135 3.39325 18.919C4.72184 19.5036 6.1069 20.0284 7.04688 21.2142" stroke="#2A2D2B" stroke-width="2" stroke-linecap="round" stroke-linejoin="round"/>
</svg>
