<svg width="83" height="63" viewBox="0 0 83 63" fill="none" xmlns="http://www.w3.org/2000/svg">
<path d="M65.4034 53.6406C65.4034 55.1298 65.3835 56.6191 65.4034 58.1083C65.3962 58.5883 65.4855 59.0649 65.6659 59.5098C65.8464 59.9547 66.1142 60.3589 66.4537 60.6984C66.7932 61.0378 67.1973 61.3057 67.6422 61.4861C68.0871 61.6665 68.5637 61.7558 69.0437 61.7487C71.3603 61.7752 73.677 61.795 75.9936 61.7487C78.4558 61.6924 79.8127 60.0741 79.8027 57.9528C79.8027 55.4707 79.8027 52.9886 79.8027 50.5065C79.8027 48.3719 79.5876 46.2605 81.0636 44.3377C81.7024 43.5137 81.9241 42.1734 81.9075 41.0746C81.8446 37.1596 82.2914 33.2313 81.6428 29.3228C81.4437 27.7233 80.6754 26.2489 79.4784 25.1695C78.608 24.3951 77.8601 23.475 76.9798 22.7073C75.0901 21.0525 73.8126 19.0669 72.8132 16.7503C71.6549 14.0862 69.9605 11.6438 68.9345 8.93669C67.1474 4.21743 63.3714 2.9797 58.9533 2.49983C50.4182 1.58643 41.8534 1.73866 33.3051 1.91406C29.7018 1.9784 26.1056 2.26022 22.5362 2.75797C18.1645 3.38014 15.5864 5.69344 13.9118 9.60519C12.5252 12.8716 10.8638 16.0222 9.30839 19.2026C8.59686 20.6587 7.34591 21.6979 6.13796 22.6378C2.38837 25.5534 1.04474 29.293 1.50475 33.9329C1.72979 36.2826 1.56762 38.6753 1.53452 41.0449C1.51136 42.6036 1.80259 44.0962 2.73254 45.324C3.41097 46.2175 3.54997 47.1177 3.54004 48.1601C3.51026 51.4133 3.54004 54.6698 3.54004 57.923C3.54004 60.6334 5.50585 61.6924 7.18042 61.7189C9.54998 61.7586 11.9228 61.7686 14.2957 61.7189C16.47 61.6726 17.7442 60.276 17.7739 58.0785C17.7971 56.5893 17.6349 55.1 17.9361 53.6108" stroke="#2A2D2B" stroke-width="2" stroke-linecap="round" stroke-linejoin="round"/>
<path d="M3.57616 18.5586C3.45658 19.2495 3.69906 19.6115 4.39325 19.9171C5.72184 20.5017 7.1069 21.0265 8.04688 22.2122" stroke="#2A2D2B" stroke-width="2" stroke-linecap="round" stroke-linejoin="round"/>
<path d="M71.2053 53.3106C69.438 53.0259 67.6377 52.9267 65.9102 53.3668C64.9637 53.6117 64.2555 53.1054 63.4149 53.1087C48.9625 53.1616 34.5102 53.0524 20.0612 53.2311C17.3641 53.2642 14.6437 52.6652 11.9531 53.3106" stroke="#2A2D2B" stroke-width="2" stroke-linecap="round" stroke-linejoin="round"/>
<path d="M21.2322 8.63281C21.2322 11.1712 20.0177 13.3355 19.0844 15.5826C18.7535 16.3868 18.4689 17.2109 18.1445 18.0779C19.829 19.0708 21.6592 18.9285 23.3834 19.0211C33.0304 19.5473 42.6873 19.4282 52.341 19.3521C56.0376 19.3223 59.7342 18.9947 63.4243 18.6902C64.3542 18.6108 65.2643 18.207 66.2406 18.3129" stroke="#2A2D2B" stroke-width="2" stroke-linecap="round" stroke-linejoin="round"/>
<path d="M49.8478 42.8866C44.5527 42.7807 39.2576 43.0918 33.9625 42.7344C33.4637 42.7411 32.9664 42.7921 32.4766 42.8866" stroke="#2A2D2B" stroke-width="2" stroke-linecap="round" stroke-linejoin="round"/>
<path d="M21.7196 35.9362C21.6203 32.6896 19.82 30.8595 16.59 30.8165C13.8332 30.7768 11.0732 30.8165 8.31641 30.8165" stroke="#2A2D2B" stroke-width="2" stroke-linecap="round" stroke-linejoin="round"/>
<path d="M74.0056 30.9717C71.08 30.6706 68.128 30.5647 65.2422 31.028C62.9256 31.3987 61.893 33.2652 61.4297 35.4395" stroke="#2A2D2B" stroke-width="2" stroke-linecap="round" stroke-linejoin="round"/>
<path d="M62.0938 9.12891C62.2195 11.6606 63.4969 13.8118 64.4104 16.0787C64.6718 16.7406 64.963 17.3496 64.8968 18.0644" stroke="#2A2D2B" stroke-width="2" stroke-linecap="round" stroke-linejoin="round"/>
<path d="M81.9629 18.7129C82.0825 19.4038 81.84 19.7658 81.1458 20.0714C79.8172 20.656 78.4322 21.1808 77.4922 22.3665" stroke="#2A2D2B" stroke-width="2" stroke-linecap="round" stroke-linejoin="round"/>
</svg>
