<svg width="83" height="42" viewBox="0 0 83 42" fill="none" xmlns="http://www.w3.org/2000/svg">
<path d="M76.6917 25.0769C78.3146 25.1794 79.7472 24.6732 81.094 23.7886C81.5123 23.5146 81.5311 23.1967 81.4956 22.8287C81.2634 20.4445 80.1383 18.717 77.9591 17.573C75.9848 16.5273 73.8537 16.0108 71.779 15.2913C70.7333 14.9274 69.7065 15.1198 68.642 15.1366C61.1507 15.2474 53.6552 15.2035 46.1618 15.1868C45.63 15.1842 45.1045 15.0713 44.6185 14.8553C44.1326 14.6393 43.6967 14.3249 43.3384 13.9319C41.6276 12.1564 39.9545 10.3452 38.2062 8.60729C36.3239 6.74178 34.3538 4.97248 31.9425 3.78458C31.7762 3.72161 31.6312 3.61285 31.5242 3.47087C30.6877 2.00691 29.2007 2.02573 27.8538 1.93162C24.1354 1.67438 20.4044 1.74548 16.78 2.67196C14.0612 3.36212 11.905 5.03521 10.188 7.24371C8.98335 8.78924 7.98994 10.5 6.53016 11.8447C5.8652 12.4627 5.12619 12.9959 4.33003 13.4321C2.29512 14.551 1.23061 16.222 1.26616 18.6459C1.32263 22.2703 1.22434 25.8967 1.18251 29.5211C1.18251 30.1485 1.09467 30.7759 1.08631 31.4033C1.06748 32.723 1.77019 33.6787 2.75941 34.4212C3.17768 34.7286 3.70889 34.7265 4.22337 34.5404" stroke="#2A2D2B" stroke-width="2" stroke-linecap="round" stroke-linejoin="round"/>
<path d="M69.9985 14.671C69.9295 14.0624 69.5802 13.6253 69.1619 13.207C67.1312 11.1951 65.1758 9.10164 63.076 7.16293C60.5245 4.80804 57.674 2.88189 54.2002 2.14363C53.1361 1.92756 52.0528 1.82035 50.9669 1.82366C44.8664 1.79438 38.7659 1.82365 32.6674 1.80273C31.9751 1.80273 31.3415 1.90731 30.7852 2.33186" stroke="#2A2D2B" stroke-width="2" stroke-linecap="round" stroke-linejoin="round"/>
<path d="M42.1807 37.5743C43.1072 38.0511 43.5548 39.0592 44.4813 39.5778C45.9076 40.3851 47.3297 40.1258 48.7769 39.7681C49.3625 39.6217 49.2538 38.9609 49.6009 38.6074C50.6027 37.5889 51.0816 36.2421 51.5627 34.9454C51.8178 34.2615 51.73 33.425 51.6944 32.6595C51.5982 30.5263 51.1486 28.504 49.7243 26.8037C47.7501 24.4467 44.5607 24.7479 42.8061 27.3244C41.2543 29.6061 41.0911 32.166 41.3065 34.7509C41.3777 35.6105 42.0845 36.424 42.187 37.3756C42.1516 37.4247 42.1188 37.4757 42.0887 37.5283C42.0887 37.5283 42.1201 37.5617 42.1389 37.5785C41.7244 37.7964 41.3664 38.1078 41.0932 38.4882C40.2776 39.5088 39.1796 40.1278 37.7826 40.0944C36.145 40.0547 34.4991 40.0003 32.8678 40.1048C30.8622 40.2345 29.5802 39.2265 28.5868 37.6747C28.0995 36.9134 27.5955 36.1396 27.6394 35.165" stroke="#2A2D2B" stroke-width="2" stroke-linecap="round" stroke-linejoin="round"/>
<path d="M14.8813 34.6978C14.6721 33.443 14.9712 32.1568 14.6972 30.8768C14.3877 29.4129 13.9171 28.0744 12.9948 26.9032C11.0666 24.4626 7.68691 24.6278 5.96153 27.4052C4.83428 29.2163 4.45574 31.1132 4.41182 33.1753C4.36372 35.5302 5.36339 37.4145 6.94657 39.0186C8.055 40.1458 10.4747 40.4135 11.9659 39.7819C12.3632 39.6125 12.2879 39.2486 12.4908 39.0395C13.6683 37.816 14.1639 36.2182 14.8875 34.7438" stroke="#2A2D2B" stroke-width="2" stroke-linecap="round" stroke-linejoin="round"/>
<path d="M64.4453 35.1687C64.6001 37.808 66.9717 40.0834 69.5692 40.0834C71.1022 40.0834 72.6372 40.0416 74.1702 40.0834C76.1779 40.1545 77.5896 39.2468 78.5621 37.5591C78.9804 36.825 79.4593 36.0826 79.3025 35.1582" stroke="#2A2D2B" stroke-width="2" stroke-linecap="round" stroke-linejoin="round"/>
<path d="M81.3899 23.873C82.1741 24.9313 81.8479 26.1945 81.8521 27.3238C81.8521 28.9969 81.7663 30.67 81.8353 32.3431C81.8981 33.8405 80.7896 35.1477 78.669 34.8528C78.3905 34.8338 78.111 34.8338 77.8324 34.8528H65.9116C63.3664 34.8528 60.8149 34.7315 58.2801 34.8946C56.5234 35.0075 54.7917 34.7252 53.0517 34.8486C52.6334 34.8779 52.1838 34.8925 51.7969 34.6395" stroke="#2A2D2B" stroke-width="2" stroke-linecap="round" stroke-linejoin="round"/>
<path d="M36.7464 15.3516C36.6356 15.3516 36.4913 15.544 36.4327 15.2993C36.0751 13.8124 34.998 12.7897 34.0004 11.7691C32.371 10.0768 30.4208 8.72602 28.2638 7.79546C26.9169 7.24125 25.499 6.85853 23.989 7.11576C23.3009 7.23497 22.638 6.8146 21.8976 6.79787C17.2234 6.69749 14.2202 9.1674 12.0682 13.0051C11.9427 13.233 11.9866 13.5572 11.9531 13.8416" stroke="#2A2D2B" stroke-width="2" stroke-linecap="round" stroke-linejoin="round"/>
<path d="M41.1344 34.6448C40.7161 34.9104 40.2372 34.8539 39.775 34.8539H29.4227C26.7729 34.8539 24.1169 34.7347 21.4755 34.8958C19.7187 35.0045 17.987 34.7264 16.247 34.8498C15.8287 34.879 15.3791 34.8937 14.9922 34.6406" stroke="#2A2D2B" stroke-width="2" stroke-linecap="round" stroke-linejoin="round"/>
<path d="M36.425 15.5079C36.0778 16.7628 35.9398 16.8715 34.6473 16.8673C31.3681 16.8548 28.0909 16.9196 24.8179 16.6582C22.1681 16.4491 19.4932 16.6247 16.8706 16.0308C15.3042 15.6753 13.7942 15.1942 12.4892 14.2343C12.1391 13.942 11.6894 13.7966 11.2344 13.8286" stroke="#2A2D2B" stroke-width="2" stroke-linecap="round" stroke-linejoin="round"/>
<path d="M56.6134 35.2734C56.5478 36.0792 56.3044 36.8604 55.9009 37.5608C55.4973 38.2613 54.9435 38.8636 54.2794 39.3244C52.7004 40.458 50.8683 40.3868 49.0781 39.6737" stroke="#2A2D2B" stroke-width="2" stroke-linecap="round" stroke-linejoin="round"/>
<path d="M19.8075 35.2734C19.5732 37.1703 18.6677 38.6322 16.9799 39.5566C15.4762 40.3806 13.9328 40.3199 12.3789 39.6653" stroke="#2A2D2B" stroke-width="2" stroke-linecap="round" stroke-linejoin="round"/>
<path d="M73.2342 28.1617L64.1367 28.1094" stroke="#2A2D2B" stroke-width="2" stroke-linecap="round" stroke-linejoin="round"/>
<path d="M23.7766 7.35156C23.5465 8.2153 23.6888 9.09577 23.6804 9.96578C23.6553 12.1094 23.6804 14.2531 23.6804 16.3968" stroke="#2A2D2B" stroke-width="2" stroke-linecap="round" stroke-linejoin="round"/>
<path d="M53.0586 21.5723C53.3953 23.3855 54.7589 24.1488 56.3002 24.7093C57.7642 25.2384 59.2951 24.9666 60.7967 25.0272" stroke="#2A2D2B" stroke-width="2" stroke-linecap="round" stroke-linejoin="round"/>
</svg>
