<svg width="93" height="46" viewBox="0 0 93 46" fill="none" xmlns="http://www.w3.org/2000/svg">
<path d="M58.3756 38.5359C58.8068 38.576 59.238 38.6467 59.6715 38.649C63.0881 38.649 66.5047 38.649 69.9213 38.649C75.5363 38.649 81.1513 38.649 86.7687 38.649C87.6688 38.649 88.5217 38.9766 89.4949 38.5878C91.0218 37.9822 91.87 37.174 91.9478 35.5977C92.0883 31.9448 91.982 28.2866 91.6297 24.6481C91.4388 22.4591 90.9558 20.1217 89.0236 18.4958C88.1562 17.7589 87.1453 17.2101 86.0547 16.8841C83.9718 16.2644 82.5203 14.6339 80.6353 13.6843C80.5575 12.419 79.4383 11.91 78.7503 11.0924C75.2677 7.00429 70.8968 4.33935 65.8002 2.68996C62.7818 1.71681 59.7257 1.42228 56.6107 1.42464C50.8379 1.42464 45.065 1.30446 39.2921 1.46233C34.4877 1.59428 29.8129 2.45669 25.4938 4.81532C22.8619 6.25265 20.4372 7.91146 18.3213 10.025C17.1809 11.1631 15.965 12.2446 14.9189 13.4558C13.2989 15.3763 11.1783 16.8101 8.79255 17.5981C7.12195 18.1448 5.61393 19.1462 4.20959 20.19C2.21854 21.6697 1.46689 23.854 1.22655 26.2833C0.932016 29.2287 1.02627 32.174 1.00978 35.1217C0.993283 38.1047 2.45653 39.2028 5.36652 38.4205" stroke="#2A2D2B" stroke-width="2" stroke-linecap="round" stroke-linejoin="round"/>
<path d="M51.3055 6.49219C51.292 7.00614 51.444 7.51084 51.7391 7.93187C52.8889 9.63545 53.8738 11.4427 55.5421 12.7434C57.5237 14.2891 59.7151 15.1256 62.2622 15.0996C67.3282 15.0604 72.3942 15.0604 77.4601 15.0996C78.7537 15.1138 79.7881 14.7274 80.6411 13.7849" stroke="#2A2D2B" stroke-width="2" stroke-linecap="round" stroke-linejoin="round"/>
<path d="M33.6348 7.55232C32.2399 7.00567 30.8709 7.37089 29.6291 7.93404C26.024 9.58343 23.1352 12.1494 20.7743 15.3233C20.5423 15.5994 20.3951 15.9367 20.3504 16.2946C20.3057 16.6524 20.3653 17.0155 20.5221 17.3403C20.8897 18.2522 21.5872 18.1603 22.3129 18.1579C25.5316 18.1579 28.7526 18.2027 31.9736 18.1438C35.6329 18.0778 39.3134 18.2074 42.9279 17.4369C44.9025 17.0198 46.8016 16.4095 48.3474 14.878C46.6108 11.254 44.2663 8.36995 40.2229 7.46043C38.1023 6.98917 35.885 6.61688 33.7502 7.60651" stroke="#2A2D2B" stroke-width="2" stroke-linecap="round" stroke-linejoin="round"/>
<path d="M55.3107 43.957C55.6123 42.6375 56.6703 41.7492 57.2664 40.5781C58.1877 38.7708 58.011 36.9612 58.0063 35.121C57.9865 33.105 57.28 31.156 56.0035 29.5955C54.1184 27.1827 50.4285 27.0719 48.4493 29.7981C47.0355 31.7444 46.6443 33.8627 46.4111 36.1766C46.2179 38.0922 47.2358 39.6827 47.2994 41.4829C48.9488 42.7765 50.1269 45.0479 52.7188 44.5131C54.5591 44.1337 56.3381 44.5578 58.1382 44.5508C61.0954 44.5366 63.6449 41.9966 63.6755 39.0088" stroke="#2A2D2B" stroke-width="2" stroke-linecap="round" stroke-linejoin="round"/>
<path d="M17.2533 38.4198C17.2698 36.5607 17.3169 34.6945 16.782 32.8825C16.2471 31.0706 15.3423 29.4636 13.7189 28.4056C11.5252 26.9919 8.90499 27.6752 7.26502 30.1752C5.89603 32.2581 5.46012 34.5814 5.53552 37.1144C5.59678 39.1785 6.43798 40.8067 7.49123 42.4066C8.98982 44.6851 11.6359 45.0668 13.9333 44.1149C14.619 43.8321 14.9488 42.7412 15.5002 42.0673C16.3579 41.014 16.5629 39.6498 17.2603 38.5329" stroke="#2A2D2B" stroke-width="2" stroke-linecap="round" stroke-linejoin="round"/>
<path d="M71.6797 39.0078C71.7103 42.0262 74.2292 44.5451 77.2169 44.5451C78.9441 44.5451 80.683 44.4296 82.4007 44.5733C84.6722 44.7665 86.1708 43.6473 87.3206 41.9343C87.8885 41.0813 88.4988 40.1459 88.4116 39.0078" stroke="#2A2D2B" stroke-width="2" stroke-linecap="round" stroke-linejoin="round"/>
<path d="M31.1523 39.0078C31.183 41.9367 33.7914 44.5451 36.6896 44.5451C38.4945 44.5451 40.3041 44.4885 42.109 44.5615C43.6359 44.6252 44.8682 44.1633 45.8932 43.0253C46.3267 42.554 46.7061 41.972 47.3541 41.7175" stroke="#2A2D2B" stroke-width="2" stroke-linecap="round" stroke-linejoin="round"/>
<path d="M46.2354 38.5374C45.7241 38.5774 45.2128 38.6481 44.7039 38.6505C40.7767 38.6599 36.8496 38.6599 32.9225 38.6505C30.1727 38.6505 27.4182 38.5397 24.6755 38.6882C22.701 38.7966 20.7453 38.5185 18.7849 38.6458C18.3018 38.6764 17.807 38.6953 17.3711 38.4102" stroke="#2A2D2B" stroke-width="2" stroke-linecap="round" stroke-linejoin="round"/>
<path d="M68.3791 27.1093C68.3917 26.6406 68.309 26.1743 68.1361 25.7385C67.9632 25.3027 67.7037 24.9065 67.3733 24.5739C67.0429 24.2413 66.6485 23.9792 66.2139 23.8034C65.7792 23.6276 65.3135 23.5419 64.8447 23.5513C62.9244 23.6102 60.9946 23.6832 59.0742 23.457" stroke="#2A2D2B" stroke-width="2" stroke-linecap="round" stroke-linejoin="round"/>
<path d="M22.9084 39.0078C22.0695 43.3975 18.792 45.7562 14.4258 44.0738" stroke="#2A2D2B" stroke-width="2" stroke-linecap="round" stroke-linejoin="round"/>
<path d="M33.7422 7.66992V17.8608" stroke="#2A2D2B" stroke-width="2" stroke-linecap="round" stroke-linejoin="round"/>
<path d="M81.937 32.057L73.2188 31.998" stroke="#2A2D2B" stroke-width="2" stroke-linecap="round" stroke-linejoin="round"/>
<path d="M91.1283 23.3398C90.4521 23.7004 89.7146 23.5755 89.0077 23.5755C86.6279 23.5425 85.3649 25.0552 85.3555 27.1099" stroke="#2A2D2B" stroke-width="2" stroke-linecap="round" stroke-linejoin="round"/>
</svg>
